<svg width="42" height="40" viewBox="0 0 42 40" fill="none" xmlns="http://www.w3.org/2000/svg">
<circle opacity="0.1" cx="20" cy="20" r="20" fill="#D0CCC7"/>
<path d="M13.5 13.92H27.7558C28.3947 13.92 28.8698 14.5111 28.7324 15.1351L27.6915 19.8604C27.2876 21.6941 25.6628 23 23.7852 23H17.5451C16.0769 23 14.8245 21.9375 14.5852 20.489L13.5 13.92ZM13.5 13.92L12.963 12.352C12.6861 11.5433 11.9257 11 11.0709 11H11" stroke="#311F09" stroke-width="1.5" stroke-linecap="round"/>
<path d="M26 26H15.5C14.6716 26 14 25.3284 14 24.5V24.5C14 23.6716 14.6716 23 15.5 23H18" stroke="#311F09" stroke-width="1.5" stroke-linecap="round"/>
<circle cx="16" cy="28" r="1.25" stroke="#311F09" stroke-width="1.5"/>
<circle cx="24" cy="28" r="1.25" stroke="#311F09" stroke-width="1.5"/>
<circle cx="34" cy="10" r="8" fill="#FF3838"/>
<path d="M32.464 8.608C32.496 8.112 32.6853 7.72533 33.032 7.448C33.384 7.17067 33.832 7.032 34.376 7.032C34.7493 7.032 35.072 7.09867 35.344 7.232C35.616 7.36533 35.8213 7.54667 35.96 7.776C36.0987 8.00533 36.168 8.264 36.168 8.552C36.168 8.88267 36.08 9.16533 35.904 9.4C35.728 9.63467 35.5173 9.792 35.272 9.872V9.904C35.5867 10 35.832 10.176 36.008 10.432C36.184 10.6827 36.272 11.0053 36.272 11.4C36.272 11.7147 36.2 11.9947 36.056 12.24C35.912 12.4853 35.6987 12.68 35.416 12.824C35.1333 12.9627 34.7947 13.032 34.4 13.032C33.824 13.032 33.3493 12.8853 32.976 12.592C32.608 12.2933 32.4107 11.8667 32.384 11.312H33.264C33.2853 11.5947 33.3947 11.8267 33.592 12.008C33.7893 12.184 34.056 12.272 34.392 12.272C34.7173 12.272 34.968 12.184 35.144 12.008C35.32 11.8267 35.408 11.5947 35.408 11.312C35.408 10.9387 35.288 10.6747 35.048 10.52C34.8133 10.36 34.4507 10.28 33.96 10.28H33.752V9.528H33.968C34.4 9.52267 34.728 9.45067 34.952 9.312C35.1813 9.17333 35.296 8.95467 35.296 8.656C35.296 8.4 35.2133 8.19733 35.048 8.048C34.8827 7.89333 34.648 7.816 34.344 7.816C34.0453 7.816 33.8133 7.89333 33.648 8.048C33.4827 8.19733 33.384 8.384 33.352 8.608H32.464Z" fill="white"/>
</svg>
